<?xml version="1.0" encoding="utf-8"?>
<!-- Generator: Adobe Illustrator 26.0.1, SVG Export Plug-In . SVG Version: 6.00 Build 0)  -->
<svg version="1.1" id="Layer_1" xmlns="http://www.w3.org/2000/svg" xmlns:xlink="http://www.w3.org/1999/xlink" x="0px" y="0px"
	 viewBox="0 0 107 100" style="enable-background:new 0 0 107 100;" xml:space="preserve">
<style type="text/css">
	.st0{fill:none;}
	.st1{fill:#350003;}
	.st2{fill:url(#SVGID_1_);}
	.st3{fill:url(#SVGID_00000150796478637436003090000006948305284623921850_);}
	.st4{fill:url(#SVGID_00000144300999246429964460000001679799513633907378_);}
	.st5{fill:#4C0D27;}
	.st6{fill:url(#SVGID_00000107585058226718674150000015645432924949639352_);}
	.st7{fill:url(#SVGID_00000111882524755649579920000004522611272459133623_);}
	.st8{fill:url(#SVGID_00000179626433236704042220000012228578075464251020_);}
	.st9{fill:url(#SVGID_00000014599062123252084500000000958084692867931279_);}
	.st10{fill:#FF0000;}
	.st11{fill:url(#SVGID_00000032608632006445589460000011189952852182436740_);}
	.st12{fill:url(#SVGID_00000038412428545978020310000012409296838600010685_);}
	.st13{fill:url(#SVGID_00000176005115245241397360000017852983439747376259_);}
	.st14{fill:url(#SVGID_00000083791797187472694630000006148224581831117991_);}
	.st15{fill:url(#SVGID_00000012457436933273709310000005720067062789082259_);}
	.st16{fill:url(#SVGID_00000152969070399942224160000000904036508716480930_);}
	.st17{fill:url(#SVGID_00000161593534485981755800000014467273129735988660_);}
</style>
<g>
	<g>
		<path d="M80.02,27.96c-1.07-0.02-1.96,0.84-1.98,1.91c-0.01,0.33,0.07,0.65,0.22,0.93l-8.51,8.42c0.78-1.85,1.21-3.88,1.21-6.01
			c0-0.16,0-0.31-0.01-0.46l-1.2,1.19v0c-0.18,3.56-1.65,6.79-3.96,9.21l-0.63,0.62c-0.95,0.89-2.03,1.65-3.19,2.25l-2.07,2.13
			c0.45-0.14,0.88-0.29,1.31-0.47c0.01,0,0.02-0.01,0.03-0.01l0,0c1.79-0.73,3.41-1.78,4.79-3.09l0.01-0.01
			c0.19-0.17,0.37-0.35,0.54-0.54l0.01-0.01L79.1,31.63c0.26,0.13,0.54,0.21,0.85,0.21c1.07,0.02,1.96-0.83,1.98-1.91
			C81.95,28.86,81.09,27.97,80.02,27.96z M79.97,30.66c-0.42-0.01-0.75-0.35-0.74-0.77c0.01-0.42,0.35-0.75,0.77-0.74
			c0.42,0.01,0.75,0.35,0.74,0.77C80.73,30.33,80.39,30.66,79.97,30.66z"/>
		<path d="M69.17,29.14l0.95-0.94c-1.35-3.97-4.25-7.23-7.98-9.04l2.2-2.25c0.26,0.13,0.55,0.2,0.86,0.2c1.07,0,1.95-0.87,1.95-1.95
			c0-1.07-0.87-1.95-1.95-1.95c-1.07,0-1.95,0.87-1.95,1.95c0,0.33,0.08,0.65,0.23,0.92l-2.51,2.56c-1.34-0.52-2.78-0.87-4.27-1
			l-1.1,1.13c1.56,0.03,3.06,0.31,4.47,0.8l-2.98,3.04h1.66l2.51-2.57C65.06,21.77,67.98,25.09,69.17,29.14z M65.2,14.41
			c0.42,0,0.76,0.34,0.76,0.76c0,0.42-0.34,0.76-0.76,0.76s-0.76-0.34-0.76-0.76C64.44,14.74,64.78,14.41,65.2,14.41z"/>
		<path d="M44.99,23.16l0.05-0.05l0.33-0.33l0.01-0.01c1.01-0.97,2.17-1.79,3.43-2.43l0.01,0l2.04-2.09
			c-0.58,0.18-1.15,0.38-1.71,0.62c-1.73,0.75-3.3,1.8-4.63,3.09l-0.28,0.27L30.93,35.4c-0.26-0.13-0.54-0.21-0.85-0.21
			c-1.07-0.02-1.96,0.83-1.98,1.91c-0.02,1.07,0.83,1.96,1.91,1.98c1.07,0.02,1.96-0.84,1.98-1.91c0.01-0.33-0.07-0.65-0.22-0.93
			l9.16-9.06c-0.78,1.85-1.21,3.89-1.21,6.03c0,0.14,0,0.28,0.01,0.43l1.2-1.19C41.12,28.84,42.63,25.59,44.99,23.16z M30.03,37.89
			c-0.42-0.01-0.75-0.35-0.74-0.77c0.01-0.42,0.35-0.75,0.77-0.74c0.42,0.01,0.75,0.35,0.74,0.77
			C30.79,37.56,30.44,37.89,30.03,37.89z"/>
		<path d="M50.49,46.79l2.45-2.52l-0.85-0.83L49.3,46.3c-3.74-1.73-6.62-5.01-7.8-9.02l-0.95,0.94c1.34,3.93,4.2,7.16,7.88,8.98
			l-2.72,2.79c-0.26-0.13-0.55-0.2-0.86-0.2c-1.07,0-1.95,0.87-1.95,1.95c0,1.07,0.87,1.95,1.95,1.95c1.07,0,1.95-0.87,1.95-1.95
			c0-0.33-0.08-0.65-0.23-0.92l3.02-3.09c1.38,0.55,2.86,0.9,4.4,1.04l1.1-1.13C53.48,47.6,51.93,47.31,50.49,46.79z M44.86,52.49
			c-0.42,0-0.76-0.34-0.76-0.76c0-0.42,0.34-0.76,0.76-0.76c0.42,0,0.76,0.34,0.76,0.76C45.61,52.15,45.27,52.49,44.86,52.49z"/>
	</g>
	<line class="st0" x1="65.72" y1="44.51" x2="65.67" y2="44.42"/>
	<g>
		<path class="st1" d="M41.78,35.27l6.44,4.8l6,4.47l0.08,0.06h0.09l0.08-0.18l5.02-11.26l0.02-0.06l0.05-0.12l6.16-13.8
			L41.78,35.27z M59.45,32.85L54.3,44.37l-5.96-4.44l-6.25-4.65l23.22-15.59l0,0L59.45,32.85z"/>
		<polyline class="st0" points="59.62,33.28 59.53,33.11 59.47,33.01 		"/>
		<linearGradient id="SVGID_1_" gradientUnits="userSpaceOnUse" x1="42.0978" y1="29.8103" x2="65.32" y2="29.8103">
			<stop  offset="0" style="stop-color:#FF0000"/>
			<stop  offset="0.1137" style="stop-color:#F90000"/>
			<stop  offset="0.2664" style="stop-color:#E80000"/>
			<stop  offset="0.4412" style="stop-color:#CC0000"/>
			<stop  offset="0.6325" style="stop-color:#A50000"/>
			<stop  offset="0.8348" style="stop-color:#730001"/>
			<stop  offset="1" style="stop-color:#450001"/>
		</linearGradient>
		<polygon class="st2" points="65.32,19.69 65.32,19.69 48.34,39.93 42.1,35.28 		"/>
		
			<linearGradient id="SVGID_00000025431547281157132900000016498902994491983038_" gradientUnits="userSpaceOnUse" x1="51.2752" y1="42.2266" x2="65.4233" y2="19.7241">
			<stop  offset="0" style="stop-color:#FF0000"/>
			<stop  offset="0.1137" style="stop-color:#F90000"/>
			<stop  offset="0.2664" style="stop-color:#E80000"/>
			<stop  offset="0.4412" style="stop-color:#CC0000"/>
			<stop  offset="0.6325" style="stop-color:#A50000"/>
			<stop  offset="0.8348" style="stop-color:#730001"/>
			<stop  offset="1" style="stop-color:#450001"/>
		</linearGradient>
		<polygon style="fill:url(#SVGID_00000025431547281157132900000016498902994491983038_);" points="65.32,19.69 59.45,32.85 
			54.3,44.37 48.34,39.93 		"/>
		
			<linearGradient id="SVGID_00000060735500433750454790000001160425414402843295_" gradientUnits="userSpaceOnUse" x1="48.2872" y1="30.8881" x2="63.5636" y2="30.8881">
			<stop  offset="0" style="stop-color:#000000"/>
			<stop  offset="1" style="stop-color:#FFFFFF;stop-opacity:0.5"/>
		</linearGradient>
		<path style="fill:url(#SVGID_00000060735500433750454790000001160425414402843295_);" d="M63.56,21.77
			c-0.62,0.77-1.25,1.54-1.88,2.31l-1.89,2.3c-1.26,1.53-2.54,3.05-3.8,4.57c-1.28,1.51-2.55,3.03-3.84,4.54l-1.93,2.26
			c-0.65,0.75-1.29,1.5-1.94,2.25c0.62-0.77,1.25-1.54,1.88-2.31l1.89-2.3c1.26-1.53,2.54-3.05,3.8-4.57
			c1.28-1.51,2.55-3.03,3.84-4.54l1.93-2.26C62.27,23.27,62.91,22.52,63.56,21.77z"/>
		<path class="st5" d="M59.58,32.98l-0.14-0.14L54.3,44.37l-0.08,0.17l0.08,0.06h11.45l2.63-2.99L59.58,32.98z M65.67,44.42h-11.2
			l5.03-11.26l0.12,0.11l0,0l8.51,8.34L65.67,44.42z"/>
		
			<linearGradient id="SVGID_00000026861900993343768260000003893067997160146357_" gradientUnits="userSpaceOnUse" x1="66.9682" y1="43.1044" x2="59.4953" y2="33.6794">
			<stop  offset="0" style="stop-color:#EF0000"/>
			<stop  offset="1" style="stop-color:#5D0F28"/>
		</linearGradient>
		<polygon style="fill:url(#SVGID_00000026861900993343768260000003893067997160146357_);" points="68.14,41.62 65.67,44.42 
			65.67,44.42 59.62,33.28 		"/>
		
			<linearGradient id="SVGID_00000126284715616379941810000000447706286495677872_" gradientUnits="userSpaceOnUse" x1="60.0722" y1="44.3875" x2="59.7783" y2="33.3462">
			<stop  offset="0" style="stop-color:#FF0000"/>
			<stop  offset="1" style="stop-color:#5D0F28"/>
		</linearGradient>
		<polygon style="fill:url(#SVGID_00000126284715616379941810000000447706286495677872_);" points="65.67,44.42 54.48,44.42 
			59.51,33.16 59.62,33.28 59.62,33.28 		"/>
		
			<linearGradient id="SVGID_00000108991369059920668120000003441452798276076214_" gradientUnits="userSpaceOnUse" x1="60.0072" y1="39.1922" x2="65.6742" y2="39.1922">
			<stop  offset="0" style="stop-color:#FFFFFF;stop-opacity:0.5"/>
			<stop  offset="1" style="stop-color:#000000"/>
		</linearGradient>
		<path style="fill:url(#SVGID_00000108991369059920668120000003441452798276076214_);" d="M60.01,33.96
			c0.46,0.78,0.91,1.56,1.35,2.34c0.44,0.79,0.87,1.58,1.3,2.37c0.43,0.79,0.85,1.59,1.27,2.39c0.42,0.8,1.36,2.55,1.75,3.36
			c-0.46-0.78-1.44-2.5-1.88-3.29c-0.44-0.79-0.87-1.58-1.3-2.37c-0.43-0.79-0.85-1.59-1.27-2.39
			C60.81,35.58,60.4,34.77,60.01,33.96z"/>
		
			<linearGradient id="SVGID_00000081607915320193386900000005960011511433196449_" gradientUnits="userSpaceOnUse" x1="61.0038" y1="42.2614" x2="55.6406" y2="37.6223">
			<stop  offset="0" style="stop-color:#FF0000"/>
			<stop  offset="1" style="stop-color:#5D0F28"/>
		</linearGradient>
		<polygon style="fill:url(#SVGID_00000081607915320193386900000005960011511433196449_);" points="59.51,33.16 54.76,44.42 
			54.48,44.42 		"/>
	</g>
</g>
<g>
	<path class="st10" d="M14.74,64.6h-1.85v-9.01h6.12v1.53h-4.27v2.28h4.02v1.5h-4.02V64.6z"/>
	<path class="st10" d="M22.86,57.64h0.26c0.74,0,1.44,0.06,2.11,0.17v1.23h-2.08c-0.33,0-0.57,0.09-0.74,0.26
		c-0.17,0.18-0.25,0.42-0.25,0.73v4.57h-1.75v-4.63C20.41,58.42,21.23,57.64,22.86,57.64z"/>
	<path class="st10" d="M27.65,57.75l1.77,4.83l1.77-4.83h1.77l-3.41,9.27h-1.78l0.96-2.41h-0.32l-2.53-6.85H27.65z"/>
	<path class="st10" d="M42.21,55.59h1.85v9.01h-1.96l-3.41-6.02v6.02h-1.85v-9.01h1.96l3.41,6.02V55.59z"/>
	<path class="st10" d="M51.87,60.11v1.68h-4.4v0.47c0,0.39,0.09,0.68,0.27,0.85c0.18,0.18,0.47,0.26,0.86,0.26h2.97v1.14
		c-0.72,0.12-1.59,0.18-2.61,0.18h-0.54c-1.8,0-2.7-0.82-2.7-2.46v-2.13c0-1.64,0.9-2.46,2.7-2.46h0.76
		C50.98,57.64,51.87,58.47,51.87,60.11z M47.47,59.99v0.56h2.66v-0.45c0-0.76-0.36-1.14-1.07-1.14h-0.54
		C47.82,58.97,47.47,59.31,47.47,59.99z"/>
	<path class="st10" d="M56.75,63.3h1.46v1.25c-0.5,0.1-1.03,0.15-1.59,0.15h-0.5c-0.65,0-1.16-0.18-1.52-0.55
		c-0.36-0.36-0.55-0.87-0.55-1.52v-3.49h-1.17v-1.4h1.17v-1.77h1.75v1.77h2.34v1.4H55.8v3.21C55.8,62.99,56.12,63.3,56.75,63.3z"/>
	<path class="st10" d="M65.11,57.75l1.32,4.62l1.33-4.62h1.77l-2.14,6.85h-1.85l-1.27-4.45L63,64.6h-1.85l-2.14-6.85h1.77l1.34,4.62
		l1.32-4.62H65.11z"/>
	<path class="st10" d="M70.37,62.24v-2.13c0-1.64,0.89-2.46,2.68-2.46h1.1c1.8,0,2.7,0.82,2.7,2.46v2.13c0,1.64-0.9,2.46-2.7,2.46
		h-1.1C71.27,64.7,70.37,63.88,70.37,62.24z M75.11,62.19v-2.02c0-0.39-0.09-0.67-0.27-0.85c-0.18-0.18-0.47-0.28-0.86-0.28h-0.73
		c-0.39,0-0.68,0.09-0.86,0.28c-0.18,0.18-0.27,0.47-0.27,0.85v2.02c0,0.39,0.09,0.67,0.26,0.85c0.18,0.18,0.46,0.27,0.87,0.27h0.73
		c0.39,0,0.68-0.09,0.86-0.27C75.02,62.86,75.11,62.57,75.11,62.19z"/>
	<path class="st10" d="M80.85,57.64h0.26c0.74,0,1.44,0.06,2.11,0.17v1.23h-2.08c-0.33,0-0.57,0.09-0.74,0.26
		c-0.17,0.18-0.25,0.42-0.25,0.73v4.57H78.4v-4.63C78.4,58.42,79.21,57.64,80.85,57.64z"/>
	<path class="st10" d="M86.17,62.74v1.86h-1.75v-9.27h1.75v5.07l2.17-2.66h2.05l-2.41,2.95l2.75,3.9h-1.99l-1.86-2.7L86.17,62.74z"
		/>
	<path class="st10" d="M93.91,60.35l1.59,0.27c0.56,0.09,0.98,0.3,1.24,0.6c0.26,0.31,0.39,0.74,0.39,1.31v0.22
		c0,0.65-0.18,1.14-0.53,1.46c-0.35,0.33-0.93,0.49-1.73,0.49h-0.83c-0.83,0-1.58-0.06-2.25-0.17v-1.21h2.86
		c0.49,0,0.73-0.19,0.73-0.56v-0.26c0-0.33-0.23-0.54-0.68-0.62l-1.59-0.27c-0.57-0.09-0.99-0.29-1.25-0.6
		c-0.26-0.3-0.39-0.74-0.39-1.3v-0.15c0-0.62,0.18-1.1,0.53-1.43c0.35-0.33,0.93-0.49,1.73-0.49h0.69c0.82,0,1.57,0.06,2.23,0.17
		v1.21h-2.72c-0.23,0-0.41,0.05-0.53,0.15c-0.12,0.1-0.19,0.24-0.19,0.4v0.17C93.23,60.07,93.46,60.28,93.91,60.35z"/>
</g>
<g>
	<g>
		<path d="M-1095.29-46.45c-7.65-0.14-13.96,5.95-14.1,13.6c-0.05,2.38,0.51,4.62,1.54,6.6l-60.61,59.98
			c5.53-13.18,8.58-27.65,8.58-42.82c0-1.11-0.01-2.21-0.05-3.3l-8.55,8.46v0.01c-1.26,25.37-11.76,48.33-28.21,65.61l-4.46,4.41
			c-6.79,6.32-14.43,11.73-22.73,16.03l-14.75,15.14c3.18-0.97,6.3-2.09,9.35-3.32c0.07-0.03,0.15-0.06,0.22-0.09l0.03-0.03
			c12.72-5.21,24.28-12.7,34.13-21.99l0.08-0.07c1.32-1.24,2.61-2.51,3.86-3.82l0.07-0.07l89.06-88.14
			c1.82,0.94,3.87,1.48,6.05,1.52c7.65,0.14,13.96-5.94,14.1-13.6C-1081.56-40-1087.65-46.32-1095.29-46.45z M-1095.65-27.23
			c-2.97-0.05-5.33-2.51-5.28-5.47c0.05-2.97,2.51-5.34,5.47-5.28c2.97,0.05,5.33,2.51,5.28,5.47
			C-1090.22-29.55-1092.68-27.17-1095.65-27.23z"/>
		<path d="M-1172.52-38.05l6.77-6.7c-9.59-28.25-30.25-51.44-56.81-64.36l15.65-16c1.84,0.91,3.91,1.41,6.09,1.41
			c7.65,0,13.85-6.2,13.85-13.85c0-7.65-6.2-13.85-13.85-13.85c-7.65,0-13.85,6.2-13.85,13.85c0,2.37,0.6,4.61,1.65,6.56
			l-17.85,18.25c-9.57-3.73-19.78-6.17-30.42-7.09l-7.86,8.06c11.12,0.2,21.8,2.18,31.79,5.66l-21.19,21.66h11.85l17.86-18.26
			C-1201.81-90.47-1180.99-66.87-1172.52-38.05z M-1200.81-142.93c2.97,0,5.38,2.41,5.38,5.38c0,2.97-2.41,5.38-5.38,5.38
			c-2.97,0-5.38-2.41-5.38-5.38C-1206.19-140.52-1203.78-142.93-1200.81-142.93z"/>
		<path d="M-1344.72-80.59l0.35-0.36l2.37-2.34l0.04-0.04c7.22-6.89,15.43-12.75,24.41-17.33l0.04-0.03l14.52-14.91
			c-4.16,1.25-8.22,2.74-12.16,4.45c-12.3,5.33-23.46,12.84-32.99,22.02l-1.97,1.95l-94.71,93.73c-1.82-0.94-3.88-1.48-6.06-1.52
			c-7.65-0.14-13.96,5.94-14.1,13.6c-0.14,7.65,5.94,13.96,13.6,14.1c7.65,0.14,13.96-5.95,14.1-13.6c0.05-2.38-0.51-4.62-1.54-6.6
			l65.22-64.54c-5.55,13.2-8.62,27.71-8.62,42.91c0,1.02,0.01,2.03,0.05,3.04l8.57-8.49C-1372.26-40.15-1361.49-63.3-1344.72-80.59z
			 M-1451.23,24.25c-2.97-0.05-5.33-2.5-5.27-5.47c0.05-2.97,2.5-5.33,5.47-5.28c2.97,0.05,5.33,2.51,5.28,5.47
			S-1448.26,24.31-1451.23,24.25z"/>
		<path d="M-1305.54,87.64l17.45-17.91l-6.07-5.91L-1314,84.18c-26.63-12.31-47.13-35.7-55.56-64.22l-6.76,6.69
			c9.52,27.97,29.9,50.96,56.09,63.93l-19.33,19.84c-1.84-0.9-3.91-1.41-6.09-1.41c-7.65,0-13.85,6.2-13.85,13.85
			c0,7.64,6.2,13.85,13.85,13.85c7.64,0,13.85-6.21,13.85-13.85c0-2.37-0.6-4.61-1.66-6.57l21.47-22.03
			c9.82,3.9,20.34,6.44,31.3,7.39l7.86-8.07C-1284.28,93.39-1295.28,91.31-1305.54,87.64z M-1345.65,128.24
			c-2.97,0-5.38-2.42-5.38-5.38c0-2.97,2.41-5.38,5.38-5.38c2.96,0,5.38,2.41,5.38,5.38
			C-1340.27,125.82-1342.69,128.24-1345.65,128.24z"/>
	</g>
	<line class="st0" x1="-1197.14" y1="71.42" x2="-1197.49" y2="70.77"/>
	<g>
		<path class="st1" d="M-1367.54,5.64l45.88,34.18l42.71,31.81l0.59,0.44h0.65l0.58-1.3l35.78-80.15l0.18-0.4l0.39-0.87l43.88-98.28
			L-1367.54,5.64z M-1241.78-11.62l-36.62,82.03l-42.42-31.6l-44.47-33.12l165.33-111l-0.01,0.03L-1241.78-11.62z"/>
		<polyline class="st0" points="-1240.52,-8.56 -1241.18,-9.77 -1241.57,-10.5 		"/>
		
			<linearGradient id="SVGID_00000024723075602880051220000011476280471541535152_" gradientUnits="userSpaceOnUse" x1="-1365.2891" y1="-33.2475" x2="-1199.9569" y2="-33.2475">
			<stop  offset="0" style="stop-color:#FF0000"/>
			<stop  offset="0.1137" style="stop-color:#F90000"/>
			<stop  offset="0.2664" style="stop-color:#E80000"/>
			<stop  offset="0.4412" style="stop-color:#CC0000"/>
			<stop  offset="0.6325" style="stop-color:#A50000"/>
			<stop  offset="0.8348" style="stop-color:#730001"/>
			<stop  offset="1" style="stop-color:#450001"/>
		</linearGradient>
		<polygon style="fill:url(#SVGID_00000024723075602880051220000011476280471541535152_);" points="-1199.96,-105.31 
			-1199.97,-105.28 -1320.82,38.81 -1365.29,5.69 		"/>
		
			<linearGradient id="SVGID_00000033336601447278555260000013806031090729713314_" gradientUnits="userSpaceOnUse" x1="-1299.9497" y1="55.1516" x2="-1199.2214" y2="-105.0571">
			<stop  offset="0" style="stop-color:#FF0000"/>
			<stop  offset="0.1137" style="stop-color:#F90000"/>
			<stop  offset="0.2664" style="stop-color:#E80000"/>
			<stop  offset="0.4412" style="stop-color:#CC0000"/>
			<stop  offset="0.6325" style="stop-color:#A50000"/>
			<stop  offset="0.8348" style="stop-color:#730001"/>
			<stop  offset="1" style="stop-color:#450001"/>
		</linearGradient>
		<polygon style="fill:url(#SVGID_00000033336601447278555260000013806031090729713314_);" points="-1199.97,-105.28 
			-1241.78,-11.62 -1278.4,70.41 -1320.82,38.81 		"/>
		
			<linearGradient id="SVGID_00000109012245922197848940000004328958369618000021_" gradientUnits="userSpaceOnUse" x1="-1321.223" y1="-25.5739" x2="-1212.4614" y2="-25.5739">
			<stop  offset="0" style="stop-color:#000000"/>
			<stop  offset="1" style="stop-color:#FFFFFF;stop-opacity:0.5"/>
		</linearGradient>
		<path style="fill:url(#SVGID_00000109012245922197848940000004328958369618000021_);" d="M-1212.46-90.48
			c-4.42,5.5-8.9,10.95-13.35,16.43l-13.46,16.34c-8.98,10.89-18.05,21.7-27.07,32.55c-9.1,10.78-18.16,21.61-27.31,32.36
			l-13.73,16.11c-4.61,5.34-9.2,10.71-13.84,16.02c4.42-5.5,8.9-10.95,13.35-16.43l13.46-16.34c8.98-10.88,18.05-21.7,27.08-32.55
			c9.11-10.78,18.16-21.61,27.31-32.35l13.73-16.11C-1221.69-79.8-1217.11-85.16-1212.46-90.48z"/>
		<path class="st5" d="M-1240.79-10.65l-0.99-0.97l-36.62,82.03l-0.55,1.22l0.59,0.44h81.52l18.73-21.31L-1240.79-10.65z
			 M-1197.43,70.77h-79.7l35.78-80.15l0.83,0.81l0.01,0.01l60.61,59.39L-1197.43,70.77z"/>
		
			<linearGradient id="SVGID_00000137131625626068004420000004605174054050567844_" gradientUnits="userSpaceOnUse" x1="-1188.2224" y1="61.4009" x2="-1241.426" y2="-5.7014">
			<stop  offset="0" style="stop-color:#EF0000"/>
			<stop  offset="1" style="stop-color:#5D0F28"/>
		</linearGradient>
		<polygon style="fill:url(#SVGID_00000137131625626068004420000004605174054050567844_);" points="-1179.9,50.83 -1197.43,70.77 
			-1197.49,70.77 -1240.52,-8.56 		"/>
		
			<linearGradient id="SVGID_00000064324939535516741640000009371306234844105099_" gradientUnits="userSpaceOnUse" x1="-1237.3187" y1="70.536" x2="-1239.411" y2="-8.0738">
			<stop  offset="0" style="stop-color:#FF0000"/>
			<stop  offset="1" style="stop-color:#5D0F28"/>
		</linearGradient>
		<polygon style="fill:url(#SVGID_00000064324939535516741640000009371306234844105099_);" points="-1197.49,70.77 -1277.13,70.77 
			-1241.36,-9.38 -1240.52,-8.56 -1240.52,-8.56 		"/>
		
			<linearGradient id="SVGID_00000173158662913526168190000006817506450548125315_" gradientUnits="userSpaceOnUse" x1="-1237.782" y1="33.5477" x2="-1197.4346" y2="33.5477">
			<stop  offset="0" style="stop-color:#FFFFFF;stop-opacity:0.5"/>
			<stop  offset="1" style="stop-color:#000000"/>
		</linearGradient>
		<path style="fill:url(#SVGID_00000173158662913526168190000006817506450548125315_);" d="M-1237.78-3.67
			c3.27,5.52,6.46,11.09,9.59,16.69c3.14,5.59,6.21,11.22,9.27,16.86c3.04,5.65,6.06,11.31,9.02,17
			c2.97,5.68,9.65,18.13,12.48,23.89c-3.27-5.52-10.25-17.81-13.37-23.41c-3.14-5.59-6.21-11.23-9.27-16.86
			c-3.04-5.65-6.06-11.31-9.01-17C-1232.06,7.81-1234.96,2.09-1237.78-3.67z"/>
		
			<linearGradient id="SVGID_00000034083179448832417690000010342661471938236808_" gradientUnits="userSpaceOnUse" x1="-1230.6859" y1="55.3989" x2="-1268.87" y2="22.3708">
			<stop  offset="0" style="stop-color:#FF0000"/>
			<stop  offset="1" style="stop-color:#5D0F28"/>
		</linearGradient>
		<polygon style="fill:url(#SVGID_00000034083179448832417690000010342661471938236808_);" points="-1241.36,-9.38 -1275.15,70.77 
			-1277.13,70.77 		"/>
	</g>
</g>
<g>
	<path class="st10" d="M-1560.08,214.45h-13.16v-64.16h43.59v10.88h-30.43v16.27h28.61v10.69h-28.61V214.45z"/>
	<path class="st10" d="M-1502.22,164.91h1.83c5.24,0,10.24,0.4,14.99,1.19v8.77h-14.81c-2.32,0-4.07,0.63-5.26,1.87
		c-1.19,1.25-1.78,2.97-1.78,5.16v32.54h-12.43v-32.99C-1519.68,170.43-1513.86,164.91-1502.22,164.91z"/>
	<path class="st10" d="M-1468.14,165.64l12.61,34.36l12.61-34.36h12.61l-24.31,65.98h-12.7l6.85-17.18h-2.28l-18-48.8H-1468.14z"/>
	<path class="st10" d="M-1364.5,150.29h13.16v64.16h-13.98l-24.31-42.86v42.86h-13.16v-64.16h13.98l24.31,42.86V150.29z"/>
	<path class="st10" d="M-1295.68,182.46v11.97h-31.35v3.38c0,2.8,0.64,4.83,1.92,6.08c1.28,1.25,3.32,1.87,6.12,1.87h21.11v8.13
		c-5.12,0.85-11.3,1.28-18.55,1.28h-3.84c-12.8,0-19.19-5.85-19.19-17.55v-15.17c0-11.7,6.4-17.55,19.19-17.55h5.39
		C-1302.08,164.91-1295.68,170.76-1295.68,182.46z M-1327.03,181.64v4.02h18.92v-3.2c0-5.42-2.53-8.13-7.59-8.13h-3.84
		C-1324.53,174.33-1327.03,176.76-1327.03,181.64z"/>
	<path class="st10" d="M-1260.95,205.22h10.42v8.87c-3.53,0.73-7.31,1.1-11.33,1.1h-3.56c-4.63,0-8.24-1.29-10.83-3.88
		c-2.59-2.59-3.88-6.2-3.88-10.83v-24.86h-8.32v-9.96h8.32v-12.61h12.43v12.61h16.63v9.96h-16.63v22.85
		C-1267.72,202.96-1265.46,205.22-1260.95,205.22z"/>
	<path class="st10" d="M-1201.46,165.64l9.41,32.9l9.5-32.9h12.61l-15.26,48.8h-13.16l-9.05-31.71l-9.05,31.71h-13.16l-15.26-48.8
		h12.61l9.51,32.9l9.41-32.9H-1201.46z"/>
	<path class="st10" d="M-1163.99,197.63v-15.17c0-11.7,6.37-17.55,19.1-17.55h7.86c12.79,0,19.19,5.85,19.19,17.55v15.17
		c0,11.7-6.4,17.55-19.19,17.55h-7.86C-1157.62,215.18-1163.99,209.33-1163.99,197.63z M-1130.26,197.27v-14.35
		c0-2.74-0.64-4.77-1.92-6.08c-1.28-1.31-3.32-1.96-6.12-1.96h-5.21c-2.8,0-4.84,0.66-6.12,1.96c-1.28,1.31-1.92,3.34-1.92,6.08
		v14.35c0,2.74,0.62,4.75,1.87,6.03c1.25,1.28,3.3,1.92,6.17,1.92h5.21c2.8,0,4.84-0.64,6.12-1.92
		C-1130.9,202.02-1130.26,200.01-1130.26,197.27z"/>
	<path class="st10" d="M-1089.41,164.91h1.83c5.24,0,10.24,0.4,14.99,1.19v8.77h-14.81c-2.32,0-4.07,0.63-5.26,1.87
		c-1.19,1.25-1.78,2.97-1.78,5.16v32.54h-12.43v-32.99C-1106.87,170.43-1101.05,164.91-1089.41,164.91z"/>
	<path class="st10" d="M-1051.49,201.2v13.25h-12.43v-65.98h12.43v36.1l15.45-18.92h14.62l-17.18,21.02l19.56,27.78h-14.17
		l-13.25-19.19L-1051.49,201.2z"/>
	<path class="st10" d="M-996.38,184.2l11.33,1.92c4.02,0.67,6.96,2.1,8.82,4.29c1.86,2.19,2.79,5.3,2.79,9.32v1.55
		c0,4.63-1.25,8.1-3.75,10.42c-2.5,2.32-6.61,3.47-12.34,3.47h-5.94c-5.91,0-11.24-0.4-15.99-1.19v-8.59h20.38
		c3.47,0,5.21-1.34,5.21-4.02v-1.83c0-2.38-1.61-3.84-4.84-4.39l-11.33-1.92c-4.08-0.67-7.04-2.09-8.86-4.25
		c-1.83-2.16-2.74-5.25-2.74-9.28v-1.1c0-4.45,1.25-7.84,3.75-10.19c2.5-2.34,6.61-3.52,12.34-3.52h4.93c5.85,0,11.15,0.4,15.9,1.19
		v8.59h-19.38c-1.64,0-2.91,0.37-3.79,1.1c-0.88,0.73-1.33,1.68-1.33,2.83v1.19C-1001.22,182.19-999.61,183.65-996.38,184.2z"/>
</g>
</svg>
