<svg width="69" height="68" viewBox="0 0 69 68" fill="none" xmlns="http://www.w3.org/2000/svg">
<path d="M39.8438 6.29325L62.4712 28.9207C65.244 31.6934 65.244 36.1889 62.4712 38.9616L39.8438 61.589C37.0711 64.3617 32.5756 64.3617 29.8029 61.589L7.17549 38.9616C4.40277 36.1889 4.40277 31.6934 7.17549 28.9207L29.8029 6.29325C32.5756 3.52053 37.0711 3.52053 39.8438 6.29325Z" fill="url(#paint0_linear_1_5305)" stroke="url(#paint1_linear_1_5305)" stroke-width="1.8"/>
<path d="M28.7995 41.1208L28.7995 26.8792C28.7987 26.3169 28.9571 25.766 29.2564 25.29C29.5558 24.8141 29.9838 24.4326 30.4909 24.1899C31.0926 23.9057 31.762 23.7962 32.4229 23.8739C33.0838 23.9517 33.7096 24.2135 34.2289 24.6296L42.855 31.7504C43.1774 32.0299 43.436 32.3754 43.6133 32.7635C43.7905 33.1516 43.8822 33.5733 43.8822 34C43.8822 34.4266 43.7905 34.8483 43.6133 35.2365C43.436 35.6246 43.1774 35.9701 42.855 36.2495L34.2289 43.3703C33.7096 43.7864 33.0838 44.0483 32.4229 44.126C31.762 44.2038 31.0926 44.0943 30.4909 43.8101C29.9838 43.5673 29.5558 43.1859 29.2564 42.7099C28.9571 42.234 28.7987 41.683 28.7995 41.1208ZM32.1823 27.2344L32.1823 40.5964L40.3348 34L32.1823 27.2344Z" fill="white"/>
<defs>
<linearGradient id="paint0_linear_1_5305" x1="15.7016" y1="48.7605" x2="18.1478" y2="-4.73099" gradientUnits="userSpaceOnUse">
<stop stop-color="#FD0000"/>
<stop offset="1" stop-color="#FF9292"/>
</linearGradient>
<linearGradient id="paint1_linear_1_5305" x1="15.7016" y1="48.7605" x2="18.1478" y2="-4.73099" gradientUnits="userSpaceOnUse">
<stop stop-color="#FD0000"/>
<stop offset="1" stop-color="#FF9292"/>
</linearGradient>
</defs>
</svg>
